<svg xmlns="http://www.w3.org/2000/svg" viewBox="0 0 24 24" width="24" height="24">
  <defs>
    <linearGradient id="languageGradient" x1="0%" y1="0%" x2="100%" y2="100%">
      <stop offset="0%" style="stop-color:#4CAF50;stop-opacity:1" />
      <stop offset="100%" style="stop-color:#2196F3;stop-opacity:1" />
    </linearGradient>
  </defs>
  <path d="M11.99 2C6.47 2 2 6.48 2 12s4.47 10 9.99 10C17.52 22 22 17.52 22 12S17.52 2 11.99 2zm6.93 6h-2.95a15.65 15.65 0 0 0-1.38-3.56A8.03 8.03 0 0 1 18.92 8zM12 4.04c.83 1.2 1.48 2.53 1.91 3.96h-3.82c.43-1.43 1.08-2.76 1.91-3.96zM4.26 14C4.1 13.36 4 12.69 4 12s.1-1.36.26-2h3.38a12.14 12.14 0 0 0-.14 2c0 .69.1 1.36.14 2H4.26zm.82 2h2.95c.32 1.25.78 2.45 1.38 3.56A7.987 7.987 0 0 1 5.08 16zm2.95-8H5.08a7.987 7.987 0 0 1 4.33-3.56A15.65 15.65 0 0 0 8.03 8zM12 19.96c-.83-1.2-1.48-2.53-1.91-3.96h3.82c-.43 1.43-1.08 2.76-1.91 3.96zM14.34 14H9.66c-.1-.66-.16-1.32-.16-2 0-.68.06-1.35.16-2h4.68c.1.65.16 1.32.16 2 0 .68-.06 1.34-.16 2zm.25 5.56c.6-1.11 1.06-2.31 1.38-3.56h2.95a8.03 8.03 0 0 1-4.33 3.56zM16.36 14c.14-.64.24-1.31.24-2 0-.69-.1-1.36-.24-2h3.38c.16.64.26 1.31.26 2s-.1 1.36-.26 2h-3.38z" fill="url(#languageGradient)" />
</svg>
